# xmcd
#
# Track frame offsets:
#	150
#	19589
#	69015
#	82623
#	107330
#	150629
#	191005
#	222502
#	267778
#	304459
#
# Disc length: 4668 seconds
#
# Revision: 1
# Processed by: cddbd v1.5.2PL0 Copyright (c) Steve Scherf et al.
# Submitted via: audiograbber 1.83.01
#
DISCID=75123a0a
DTITLE=Grateful Dead - 82-03-14 Recreation Hall, Uni of California, Davis CA
DYEAR=1900
DGENRE=
TTITLE0=One More Saturday Night
TTITLE1=Sugaree
TTITLE2=Me and My Uncle
TTITLE3=Mexicali Blues
TTITLE4=Bird Song
TTITLE5=Little Red Rooster
TTITLE6=Ramble On Rose
TTITLE7=Looks Like Rain
TTITLE8=Althea
TTITLE9=Let It Grow
EXTD=
EXTT0=
EXTT1=
EXTT2=
EXTT3=
EXTT4=
EXTT5=
EXTT6=
EXTT7=
EXTT8=
EXTT9=
PLAYORDER=
